<mxfile host="app.diagrams.net" agent="Mozilla/5.0 (Windows NT 10.0; Win64; x64) AppleWebKit/537.36 (KHTML, like Gecko) Chrome/127.0.0.0 Safari/537.36" version="24.7.7">
  <diagram name="Page-1" id="kWzpsoDcdl2X75EuScx2">
    <mxGraphModel dx="1122" dy="727" grid="1" gridSize="10" guides="1" tooltips="1" connect="1" arrows="1" fold="1" page="1" pageScale="1" pageWidth="827" pageHeight="1169" math="0" shadow="0">
      <root>
        <mxCell id="0" />
        <mxCell id="1" parent="0" />
        <mxCell id="Nkkfnbg8zN6Xrn1Q_kGs-16" style="edgeStyle=orthogonalEdgeStyle;rounded=0;orthogonalLoop=1;jettySize=auto;html=1;exitX=0.5;exitY=1;exitDx=0;exitDy=0;entryX=0.5;entryY=0;entryDx=0;entryDy=0;" parent="1" source="Nkkfnbg8zN6Xrn1Q_kGs-1" target="Nkkfnbg8zN6Xrn1Q_kGs-4" edge="1">
          <mxGeometry relative="1" as="geometry" />
        </mxCell>
        <mxCell id="Nkkfnbg8zN6Xrn1Q_kGs-1" value="Begin Settings" style="ellipse;whiteSpace=wrap;html=1;" parent="1" vertex="1">
          <mxGeometry x="380" y="60" width="120" height="50" as="geometry" />
        </mxCell>
        <mxCell id="Nkkfnbg8zN6Xrn1Q_kGs-2" value="End Settings" style="ellipse;whiteSpace=wrap;html=1;" parent="1" vertex="1">
          <mxGeometry x="380" y="440" width="120" height="50" as="geometry" />
        </mxCell>
        <mxCell id="Nkkfnbg8zN6Xrn1Q_kGs-6" style="edgeStyle=orthogonalEdgeStyle;rounded=0;orthogonalLoop=1;jettySize=auto;html=1;exitX=0.5;exitY=1;exitDx=0;exitDy=0;entryX=0.5;entryY=0;entryDx=0;entryDy=0;" parent="1" source="Nkkfnbg8zN6Xrn1Q_kGs-4" target="Nkkfnbg8zN6Xrn1Q_kGs-11" edge="1">
          <mxGeometry relative="1" as="geometry">
            <mxPoint x="440" y="300" as="targetPoint" />
          </mxGeometry>
        </mxCell>
        <mxCell id="Nkkfnbg8zN6Xrn1Q_kGs-9" style="edgeStyle=orthogonalEdgeStyle;rounded=0;orthogonalLoop=1;jettySize=auto;html=1;exitX=0;exitY=0.5;exitDx=0;exitDy=0;entryX=0.5;entryY=0;entryDx=0;entryDy=0;" parent="1" source="Nkkfnbg8zN6Xrn1Q_kGs-4" target="Nkkfnbg8zN6Xrn1Q_kGs-15" edge="1">
          <mxGeometry relative="1" as="geometry">
            <mxPoint x="260" y="190" as="targetPoint" />
          </mxGeometry>
        </mxCell>
        <mxCell id="Nkkfnbg8zN6Xrn1Q_kGs-4" value="Is location on the session" style="rhombus;whiteSpace=wrap;html=1;" parent="1" vertex="1">
          <mxGeometry x="380" y="130" width="120" height="120" as="geometry" />
        </mxCell>
        <mxCell id="Nkkfnbg8zN6Xrn1Q_kGs-7" value="Yes" style="text;html=1;align=center;verticalAlign=middle;resizable=0;points=[];autosize=1;strokeColor=none;fillColor=none;" parent="1" vertex="1">
          <mxGeometry x="430" y="270" width="40" height="30" as="geometry" />
        </mxCell>
        <mxCell id="Nkkfnbg8zN6Xrn1Q_kGs-10" value="No" style="text;html=1;align=center;verticalAlign=middle;resizable=0;points=[];autosize=1;strokeColor=none;fillColor=none;" parent="1" vertex="1">
          <mxGeometry x="310" y="160" width="40" height="30" as="geometry" />
        </mxCell>
        <mxCell id="Nkkfnbg8zN6Xrn1Q_kGs-12" style="edgeStyle=orthogonalEdgeStyle;rounded=0;orthogonalLoop=1;jettySize=auto;html=1;entryX=0.5;entryY=0;entryDx=0;entryDy=0;" parent="1" source="Nkkfnbg8zN6Xrn1Q_kGs-11" target="Nkkfnbg8zN6Xrn1Q_kGs-2" edge="1">
          <mxGeometry relative="1" as="geometry" />
        </mxCell>
        <mxCell id="Nkkfnbg8zN6Xrn1Q_kGs-11" value="Display control_form" style="rounded=0;whiteSpace=wrap;html=1;" parent="1" vertex="1">
          <mxGeometry x="380" y="320" width="120" height="40" as="geometry" />
        </mxCell>
        <mxCell id="Nkkfnbg8zN6Xrn1Q_kGs-14" style="edgeStyle=orthogonalEdgeStyle;rounded=0;orthogonalLoop=1;jettySize=auto;html=1;" parent="1" source="Nkkfnbg8zN6Xrn1Q_kGs-15" edge="1">
          <mxGeometry relative="1" as="geometry">
            <mxPoint x="440" y="400" as="targetPoint" />
            <Array as="points">
              <mxPoint x="260" y="400" />
              <mxPoint x="441" y="400" />
            </Array>
          </mxGeometry>
        </mxCell>
        <mxCell id="Nkkfnbg8zN6Xrn1Q_kGs-15" value="Display settings_form" style="rounded=0;whiteSpace=wrap;html=1;" parent="1" vertex="1">
          <mxGeometry x="200" y="240" width="120" height="40" as="geometry" />
        </mxCell>
        <mxCell id="Nkkfnbg8zN6Xrn1Q_kGs-17" value="State dropdown select" style="shape=parallelogram;perimeter=parallelogramPerimeter;whiteSpace=wrap;html=1;fixedSize=1;" parent="1" vertex="1">
          <mxGeometry x="380" y="620" width="120" height="60" as="geometry" />
        </mxCell>
        <mxCell id="Nkkfnbg8zN6Xrn1Q_kGs-18" value="Major regions of selected sate dropdown select&lt;div&gt;(filtered by js)&lt;/div&gt;" style="shape=parallelogram;perimeter=parallelogramPerimeter;whiteSpace=wrap;html=1;fixedSize=1;" parent="1" vertex="1">
          <mxGeometry x="380" y="720" width="120" height="60" as="geometry" />
        </mxCell>
        <mxCell id="Nkkfnbg8zN6Xrn1Q_kGs-19" value="Postcode of selected major&amp;nbsp;&lt;div&gt;region dropdown select&lt;div&gt;(filtered by js)&lt;/div&gt;&lt;/div&gt;" style="shape=parallelogram;perimeter=parallelogramPerimeter;whiteSpace=wrap;html=1;fixedSize=1;" parent="1" vertex="1">
          <mxGeometry x="350" y="820" width="160" height="90" as="geometry" />
        </mxCell>
        <mxCell id="Nkkfnbg8zN6Xrn1Q_kGs-20" value="Vegetables of selected Postcode dropdown select&lt;div&gt;(filtered by js)&lt;br&gt;&lt;/div&gt;" style="shape=parallelogram;perimeter=parallelogramPerimeter;whiteSpace=wrap;html=1;fixedSize=1;" parent="1" vertex="1">
          <mxGeometry x="340" y="950" width="160" height="90" as="geometry" />
        </mxCell>
        <mxCell id="bdVUc4Eb2_AkQgpqR5im-5" value="Read sensor" style="shape=parallelogram;html=1;strokeWidth=2;perimeter=parallelogramPerimeter;whiteSpace=wrap;rounded=1;arcSize=12;size=0.23;" vertex="1" parent="1">
          <mxGeometry x="1081" y="200" width="100" height="60" as="geometry" />
        </mxCell>
        <mxCell id="bdVUc4Eb2_AkQgpqR5im-6" value="Begin" style="strokeWidth=2;html=1;shape=mxgraph.flowchart.start_1;whiteSpace=wrap;" vertex="1" parent="1">
          <mxGeometry x="1091" y="100" width="100" height="60" as="geometry" />
        </mxCell>
        <mxCell id="bdVUc4Eb2_AkQgpqR5im-23" style="edgeStyle=orthogonalEdgeStyle;rounded=0;orthogonalLoop=1;jettySize=auto;html=1;exitX=0;exitY=0.5;exitDx=0;exitDy=0;exitPerimeter=0;" edge="1" parent="1" source="bdVUc4Eb2_AkQgpqR5im-7">
          <mxGeometry relative="1" as="geometry">
            <mxPoint x="890" y="480" as="targetPoint" />
          </mxGeometry>
        </mxCell>
        <mxCell id="bdVUc4Eb2_AkQgpqR5im-24" value="False (Soil is wet)" style="edgeLabel;html=1;align=center;verticalAlign=middle;resizable=0;points=[];" vertex="1" connectable="0" parent="bdVUc4Eb2_AkQgpqR5im-23">
          <mxGeometry x="-0.3689" y="2" relative="1" as="geometry">
            <mxPoint x="25" y="-2" as="offset" />
          </mxGeometry>
        </mxCell>
        <mxCell id="bdVUc4Eb2_AkQgpqR5im-7" value="sensor &amp;lt; sensor_threshold" style="strokeWidth=2;html=1;shape=mxgraph.flowchart.decision;whiteSpace=wrap;" vertex="1" parent="1">
          <mxGeometry x="1021" y="290" width="220" height="100" as="geometry" />
        </mxCell>
        <mxCell id="bdVUc4Eb2_AkQgpqR5im-15" style="edgeStyle=orthogonalEdgeStyle;rounded=0;orthogonalLoop=1;jettySize=auto;html=1;exitX=0;exitY=0.5;exitDx=0;exitDy=0;exitPerimeter=0;" edge="1" parent="1" source="bdVUc4Eb2_AkQgpqR5im-8">
          <mxGeometry relative="1" as="geometry">
            <mxPoint x="890" y="710" as="targetPoint" />
          </mxGeometry>
        </mxCell>
        <mxCell id="bdVUc4Eb2_AkQgpqR5im-20" value="True (Its going to rain)" style="edgeLabel;html=1;align=center;verticalAlign=middle;resizable=0;points=[];" vertex="1" connectable="0" parent="bdVUc4Eb2_AkQgpqR5im-15">
          <mxGeometry x="-0.5917" y="2" relative="1" as="geometry">
            <mxPoint x="1" as="offset" />
          </mxGeometry>
        </mxCell>
        <mxCell id="bdVUc4Eb2_AkQgpqR5im-22" style="edgeStyle=orthogonalEdgeStyle;rounded=0;orthogonalLoop=1;jettySize=auto;html=1;exitX=0.5;exitY=1;exitDx=0;exitDy=0;exitPerimeter=0;entryX=0.5;entryY=0;entryDx=0;entryDy=0;" edge="1" parent="1" source="bdVUc4Eb2_AkQgpqR5im-8" target="bdVUc4Eb2_AkQgpqR5im-9">
          <mxGeometry relative="1" as="geometry" />
        </mxCell>
        <mxCell id="bdVUc4Eb2_AkQgpqR5im-8" value="forcast_% &amp;gt; 75" style="strokeWidth=2;html=1;shape=mxgraph.flowchart.decision;whiteSpace=wrap;" vertex="1" parent="1">
          <mxGeometry x="1021" y="430" width="220" height="100" as="geometry" />
        </mxCell>
        <mxCell id="bdVUc4Eb2_AkQgpqR5im-9" value="Turn on water" style="rounded=1;whiteSpace=wrap;html=1;absoluteArcSize=1;arcSize=14;strokeWidth=2;" vertex="1" parent="1">
          <mxGeometry x="1081" y="590" width="99" height="50" as="geometry" />
        </mxCell>
        <mxCell id="bdVUc4Eb2_AkQgpqR5im-10" value="turn off water" style="rounded=1;whiteSpace=wrap;html=1;absoluteArcSize=1;arcSize=14;strokeWidth=2;" vertex="1" parent="1">
          <mxGeometry x="827" y="715" width="123" height="50" as="geometry" />
        </mxCell>
        <mxCell id="bdVUc4Eb2_AkQgpqR5im-12" value="runtime expired?" style="strokeWidth=2;html=1;shape=mxgraph.flowchart.decision;whiteSpace=wrap;" vertex="1" parent="1">
          <mxGeometry x="1020.5" y="690" width="220" height="100" as="geometry" />
        </mxCell>
        <mxCell id="bdVUc4Eb2_AkQgpqR5im-13" style="edgeStyle=orthogonalEdgeStyle;rounded=0;orthogonalLoop=1;jettySize=auto;html=1;exitX=0.5;exitY=1;exitDx=0;exitDy=0;exitPerimeter=0;entryX=0.5;entryY=0;entryDx=0;entryDy=0;entryPerimeter=0;" edge="1" parent="1" source="bdVUc4Eb2_AkQgpqR5im-7" target="bdVUc4Eb2_AkQgpqR5im-8">
          <mxGeometry relative="1" as="geometry" />
        </mxCell>
        <mxCell id="bdVUc4Eb2_AkQgpqR5im-21" value="True (Soil is dry)" style="edgeLabel;html=1;align=center;verticalAlign=middle;resizable=0;points=[];" vertex="1" connectable="0" parent="bdVUc4Eb2_AkQgpqR5im-13">
          <mxGeometry x="-0.2324" relative="1" as="geometry">
            <mxPoint as="offset" />
          </mxGeometry>
        </mxCell>
      </root>
    </mxGraphModel>
  </diagram>
</mxfile>
